<svg width="76" height="76" viewBox="0 0 76 76" fill="none" xmlns="http://www.w3.org/2000/svg">
<path opacity="0.2" d="M37.542 75.0841C58.276 75.0841 75.0841 58.2759 75.0841 37.542C75.0841 16.8081 58.276 0 37.542 0C16.8081 0 0 16.8081 0 37.542C0 58.2759 16.8081 75.0841 37.542 75.0841Z" fill="black"/>
<path d="M37.5413 72.138C56.6481 72.138 72.1373 56.6489 72.1373 37.542C72.1373 18.4352 56.6481 2.94604 37.5413 2.94604C18.4345 2.94604 2.94531 18.4352 2.94531 37.542C2.94531 56.6489 18.4345 72.138 37.5413 72.138Z" fill="black" stroke="white" stroke-miterlimit="10"/>
<path d="M36.1982 38.9216C36.0895 38.8169 36.003 38.6914 35.9438 38.5526C35.8846 38.4138 35.8539 38.2645 35.8536 38.1136L35.8753 6.92046C35.8845 6.62637 36.0079 6.34742 36.2193 6.14277C36.4307 5.93811 36.7135 5.82383 37.0078 5.82415C37.302 5.82447 37.5846 5.93937 37.7955 6.14449C38.0065 6.34962 38.1293 6.62883 38.1379 6.92294L38.1303 38.1064C38.1305 38.3291 38.0648 38.547 37.9417 38.7326C37.8186 38.9182 37.6434 39.0634 37.4381 39.1499C37.2328 39.2364 37.0066 39.2605 36.7877 39.219C36.5689 39.1775 36.3671 39.0723 36.2077 38.9167L36.1982 38.9216Z" fill="white"/>
<path d="M36.7255 25.584C36.8618 25.3823 37.0596 25.2298 37.2894 25.1494C37.5192 25.0689 37.7689 25.0647 38.0013 25.1374C38.2337 25.2102 38.4364 25.3559 38.5794 25.553C38.7224 25.7501 38.798 25.988 38.795 26.2315L38.6854 37.9776C38.6753 38.2729 38.5501 38.5524 38.3366 38.7566C38.1232 38.9608 37.8383 39.0734 37.543 39.0705C37.2476 39.0675 36.9651 38.9492 36.7557 38.7408C36.5464 38.5323 36.4269 38.2503 36.4226 37.955L36.5303 26.2116C36.5321 25.9878 36.6 25.7694 36.7255 25.584Z" fill="white"/>
<path d="M38.9448 37.5421C38.9455 37.2646 38.8638 36.9932 38.7101 36.7622C38.5565 36.5312 38.3377 36.3509 38.0816 36.2443C37.8255 36.1377 37.5434 36.1094 37.2712 36.1631C36.999 36.2168 36.7489 36.3501 36.5525 36.5461C36.3561 36.742 36.2222 36.9918 36.1678 37.2639C36.1134 37.536 36.141 37.8181 36.247 38.0745C36.353 38.3308 36.5328 38.55 36.7634 38.7042C36.994 38.8584 37.2653 38.9408 37.5427 38.9408C37.914 38.9408 38.2701 38.7935 38.5329 38.5313C38.7958 38.2691 38.9439 37.9133 38.9448 37.5421Z" fill="white" stroke="white" stroke-miterlimit="10" stroke-linecap="round"/>
<path d="M37.5684 6.04077V10.7166" stroke="white" stroke-width="2" stroke-miterlimit="10" stroke-linecap="round"/>
<path d="M37.5684 64.0026V68.6784" stroke="white" stroke-width="2" stroke-miterlimit="10" stroke-linecap="round"/>
<path d="M68.8882 37.3596H64.209" stroke="white" stroke-width="2" stroke-miterlimit="10" stroke-linecap="round"/>
<path d="M10.9259 37.3596H6.25" stroke="white" stroke-width="2" stroke-miterlimit="10" stroke-linecap="round"/>
<path d="M53.9919 10.693L51.5391 14.6763" stroke="white" stroke-width="2" stroke-miterlimit="10" stroke-linecap="round"/>
<path d="M23.5954 60.043L21.1426 64.0262" stroke="white" stroke-width="2" stroke-miterlimit="10" stroke-linecap="round"/>
<path d="M65.1209 22.4705L61.0059 24.6935" stroke="white" stroke-width="2" stroke-miterlimit="10" stroke-linecap="round"/>
<path d="M14.1287 50.0256L10.0137 52.2487" stroke="white" stroke-width="2" stroke-miterlimit="10" stroke-linecap="round"/>
<path d="M64.2352 53.786L60.252 51.3298" stroke="white" stroke-width="2" stroke-miterlimit="10" stroke-linecap="round"/>
<path d="M14.8856 23.3894L10.9023 20.9366" stroke="white" stroke-width="2" stroke-miterlimit="10" stroke-linecap="round"/>
<path d="M52.4574 64.9148L50.2344 60.7964" stroke="white" stroke-width="2" stroke-miterlimit="10" stroke-linecap="round"/>
<path d="M24.9027 13.9229L22.6797 9.80786" stroke="white" stroke-width="2" stroke-miterlimit="10" stroke-linecap="round"/>
</svg>
