<svg width="76" height="76" viewBox="0 0 76 76" fill="none" xmlns="http://www.w3.org/2000/svg">
<path opacity="0.2" d="M37.542 75.0841C58.276 75.0841 75.0841 58.2759 75.0841 37.542C75.0841 16.8081 58.276 0 37.542 0C16.8081 0 0 16.8081 0 37.542C0 58.2759 16.8081 75.0841 37.542 75.0841Z" fill="black"/>
<path d="M37.5421 72.138C56.6489 72.138 72.1381 56.6489 72.1381 37.542C72.1381 18.4352 56.6489 2.94604 37.5421 2.94604C18.4352 2.94604 2.94609 18.4352 2.94609 37.542C2.94609 56.6489 18.4352 72.138 37.5421 72.138Z" fill="#FBB24A" stroke="white" stroke-miterlimit="10"/>
<path d="M36.1975 38.9216C36.0888 38.8169 36.0023 38.6914 35.9431 38.5526C35.8839 38.4138 35.8532 38.2645 35.8528 38.1136L35.8746 6.92046C35.8838 6.62637 36.0072 6.34742 36.2186 6.14277C36.43 5.93811 36.7128 5.82383 37.0071 5.82415C37.3013 5.82447 37.5839 5.93937 37.7948 6.14449C38.0058 6.34962 38.1286 6.62883 38.1371 6.92294L38.1296 38.1064C38.1297 38.3291 38.0641 38.547 37.941 38.7326C37.8179 38.9182 37.6427 39.0634 37.4374 39.1499C37.2321 39.2364 37.0059 39.2605 36.787 39.219C36.5681 39.1775 36.3664 39.0723 36.207 38.9167L36.1975 38.9216Z" fill="white"/>
<path d="M36.7247 25.5839C36.861 25.3821 37.0587 25.2297 37.2886 25.1492C37.5184 25.0688 37.768 25.0646 38.0004 25.1373C38.2328 25.21 38.4356 25.3558 38.5786 25.5529C38.7216 25.7499 38.7972 25.9879 38.7942 26.2314L38.6846 37.9775C38.6744 38.2727 38.5493 38.5523 38.3358 38.7565C38.1223 38.9607 37.8375 39.0733 37.5421 39.0703C37.2468 39.0674 36.9642 38.9491 36.7549 38.7406C36.5456 38.5322 36.426 38.2502 36.4218 37.9549L36.5295 26.2115C36.5312 25.9876 36.5991 25.7693 36.7247 25.5839Z" fill="white"/>
<path d="M38.9441 37.5419C38.9448 37.2645 38.8631 36.9931 38.7095 36.7621C38.5558 36.531 38.3371 36.3508 38.0809 36.2442C37.8248 36.1375 37.5428 36.1093 37.2706 36.163C36.9984 36.2167 36.7482 36.35 36.5518 36.5459C36.3554 36.7419 36.2215 36.9917 36.1672 37.2638C36.1128 37.5358 36.1404 37.8179 36.2464 38.0743C36.3524 38.3307 36.5321 38.5499 36.7627 38.7041C36.9934 38.8583 37.2646 38.9406 37.542 38.9406C37.9133 38.9406 38.2694 38.7934 38.5323 38.5312C38.7951 38.269 38.9432 37.9132 38.9441 37.5419Z" fill="white" stroke="white" stroke-miterlimit="10" stroke-linecap="round"/>
<path d="M37.5691 6.04077V10.7166" stroke="white" stroke-width="2" stroke-miterlimit="10" stroke-linecap="round"/>
<path d="M37.5691 64.0027V68.6785" stroke="white" stroke-width="2" stroke-miterlimit="10" stroke-linecap="round"/>
<path d="M68.8879 37.3596H64.2087" stroke="white" stroke-width="2" stroke-miterlimit="10" stroke-linecap="round"/>
<path d="M10.9261 37.3596H6.25024" stroke="white" stroke-width="2" stroke-miterlimit="10" stroke-linecap="round"/>
<path d="M53.992 10.6931L51.5392 14.6764" stroke="white" stroke-width="2" stroke-miterlimit="10" stroke-linecap="round"/>
<path d="M23.5955 60.043L21.1427 64.0262" stroke="white" stroke-width="2" stroke-miterlimit="10" stroke-linecap="round"/>
<path d="M65.1209 22.4705L61.0059 24.6935" stroke="white" stroke-width="2" stroke-miterlimit="10" stroke-linecap="round"/>
<path d="M14.1289 50.0256L10.0139 52.2487" stroke="white" stroke-width="2" stroke-miterlimit="10" stroke-linecap="round"/>
<path d="M64.2357 53.786L60.2524 51.3298" stroke="white" stroke-width="2" stroke-miterlimit="10" stroke-linecap="round"/>
<path d="M14.8858 23.3893L10.9025 20.9365" stroke="white" stroke-width="2" stroke-miterlimit="10" stroke-linecap="round"/>
<path d="M52.4582 64.9148L50.2352 60.7964" stroke="white" stroke-width="2" stroke-miterlimit="10" stroke-linecap="round"/>
<path d="M24.9031 13.9229L22.68 9.80786" stroke="white" stroke-width="2" stroke-miterlimit="10" stroke-linecap="round"/>
</svg>
