<svg width="45" height="45" viewBox="0 0 45 45" fill="none" xmlns="http://www.w3.org/2000/svg">
<circle cx="22.5" cy="22.5" r="22.4" fill="#333333" stroke="black" stroke-width="0.2"/>
<path d="M16.307 13C16.1415 12.9997 15.9814 13.059 15.8559 13.1669C15.7305 13.2749 15.648 13.4243 15.6235 13.588C15.5535 14.062 15 17.833 15 19.5C15 20.598 15.473 21.587 16.224 22.272C16.5715 22.5885 16.75 22.9085 16.75 23.193C16.75 23.2155 16.7495 23.234 16.7475 23.254C16.7005 23.841 16.25 29.488 16.25 30.5C16.25 31.163 16.5134 31.7989 16.9822 32.2678C17.4511 32.7366 18.087 33 18.75 33C19.413 33 20.0489 32.7366 20.5178 32.2678C20.9866 31.7989 21.25 31.163 21.25 30.5C21.25 29.488 20.7995 23.841 20.7525 23.254L20.75 23.193C20.75 22.9085 20.9285 22.5885 21.276 22.272C21.6621 21.9209 21.9705 21.4929 22.1813 21.0155C22.3921 20.5381 22.5007 20.0219 22.5 19.5C22.5 17.833 21.9465 14.06 21.8765 13.588C21.852 13.4244 21.7696 13.275 21.6443 13.1671C21.5189 13.0592 21.3589 12.9999 21.1935 13H21.1845C20.7865 13 20.501 13.3275 20.501 13.685V18.94C20.501 19.0135 20.4865 19.0864 20.4584 19.1543C20.4302 19.2222 20.389 19.284 20.337 19.336C20.285 19.388 20.2232 19.4292 20.1553 19.4574C20.0874 19.4855 20.0145 19.5 19.941 19.5C19.8675 19.5 19.7946 19.4855 19.7267 19.4574C19.6588 19.4292 19.597 19.388 19.545 19.336C19.493 19.284 19.4518 19.2222 19.4236 19.1543C19.3955 19.0864 19.381 19.0135 19.381 18.94V13.6595C19.3838 13.5738 19.3691 13.4885 19.3378 13.4087C19.3065 13.3289 19.2593 13.2562 19.1991 13.1953C19.1388 13.1343 19.0668 13.0862 18.9874 13.054C18.9079 13.0217 18.8228 13.006 18.7371 13.0077C18.6514 13.0095 18.5669 13.0286 18.4888 13.0641C18.4108 13.0995 18.3408 13.1504 18.283 13.2138C18.2253 13.2772 18.1811 13.3516 18.153 13.4326C18.125 13.5136 18.1138 13.5995 18.12 13.685V18.94C18.12 19.0885 18.061 19.231 17.956 19.336C17.851 19.441 17.7085 19.5 17.56 19.5C17.4115 19.5 17.269 19.441 17.164 19.336C17.059 19.231 17 19.0885 17 18.94V13.685C17 13.5036 16.928 13.3296 16.7999 13.2012C16.6718 13.0727 16.4979 13.0004 16.3165 13H16.307ZM26.455 23L26.4235 23.456C26.3765 24.137 26.3135 25.056 26.2515 26.008C26.1275 27.895 26 29.9555 26 30.5C26 31.163 26.2634 31.7989 26.7322 32.2678C27.2011 32.7366 27.837 33 28.5 33C29.163 33 29.7989 32.7366 30.2678 32.2678C30.7366 31.7989 31 31.163 31 30.5C31 29.8955 30.8425 27.603 30.706 25.624L30.7015 25.559C30.5925 23.973 30.5 22.62 30.5 22.375V13.625C30.5 13.28 30.22 13 29.875 13H29.625C26.5185 13 24 15.5185 24 18.625V21.375C24 21.806 24.1712 22.2193 24.476 22.524C24.7807 22.8288 25.194 23 25.625 23H26.455Z" fill="white"/>
</svg>
