<svg width="45" height="45" viewBox="0 0 45 45" fill="none" xmlns="http://www.w3.org/2000/svg">
<circle cx="22.5" cy="22.5" r="22.4" fill="#333333" stroke="black" stroke-width="0.2"/>
<path d="M24 14C24 13.7348 23.8946 13.4804 23.7071 13.2929C23.5196 13.1054 23.2652 13 23 13C22.7348 13 22.4804 13.1054 22.2929 13.2929C22.1053 13.4804 22 13.7348 22 14V14.962L21.346 14.616C21.2299 14.5546 21.1029 14.5167 20.9721 14.5044C20.8414 14.4921 20.7095 14.5057 20.584 14.5443C20.4585 14.583 20.3418 14.646 20.2407 14.7298C20.1395 14.8136 20.0559 14.9164 19.9945 15.0325C19.9331 15.1486 19.8952 15.2756 19.8829 15.4064C19.8706 15.5371 19.8842 15.669 19.9228 15.7945C19.9615 15.92 20.0245 16.0367 20.1083 16.1378C20.192 16.2389 20.2949 16.3226 20.411 16.384L22 17.224V19.126C21.296 19.3082 20.6551 19.6788 20.146 20.198L18.498 19.246L18.565 17.45C18.5748 17.1849 18.4789 16.9268 18.2984 16.7324C18.1179 16.538 17.8676 16.4233 17.6025 16.4135C17.3374 16.4037 17.0793 16.4996 16.8849 16.6801C16.6905 16.8606 16.5758 17.1109 16.566 17.376L16.539 18.115L15.706 17.635C15.5922 17.5646 15.4653 17.5177 15.3331 17.4972C15.2008 17.4767 15.0657 17.483 14.9359 17.5156C14.8061 17.5483 14.6842 17.6067 14.5773 17.6873C14.4705 17.768 14.3809 17.8693 14.314 17.9852C14.247 18.1011 14.204 18.2293 14.1875 18.3621C14.171 18.4949 14.1813 18.6297 14.2179 18.7585C14.2544 18.8873 14.3165 19.0074 14.4003 19.1118C14.4842 19.2161 14.5881 19.3026 14.706 19.366L15.539 19.847L14.912 20.241C14.6933 20.3847 14.5397 20.6085 14.484 20.8642C14.4284 21.1199 14.4753 21.3872 14.6145 21.6088C14.7538 21.8304 14.9743 21.9885 15.2289 22.0493C15.4834 22.1101 15.7516 22.0687 15.976 21.934L17.498 20.978L19.145 21.929C18.9503 22.6297 18.9503 23.3703 19.145 24.071L17.498 25.021L15.976 24.066C15.7516 23.9313 15.4834 23.8899 15.2289 23.9507C14.9743 24.0115 14.7538 24.1696 14.6145 24.3912C14.4753 24.6128 14.4284 24.8801 14.484 25.1358C14.5397 25.3915 14.6933 25.6153 14.912 25.759L15.539 26.153L14.706 26.633C14.5922 26.6987 14.4925 26.7861 14.4125 26.8903C14.3325 26.9945 14.2738 27.1135 14.2397 27.2403C14.2057 27.3672 14.197 27.4996 14.2141 27.6298C14.2312 27.7601 14.2738 27.8857 14.3395 27.9995C14.4051 28.1133 14.4926 28.213 14.5968 28.293C14.701 28.373 14.8199 28.4317 14.9468 28.4658C15.0737 28.4998 15.2061 28.5085 15.3363 28.4914C15.4666 28.4743 15.5922 28.4317 15.706 28.366L16.538 27.885L16.566 28.625C16.5709 28.7563 16.6016 28.8853 16.6564 29.0046C16.7112 29.124 16.789 29.2314 16.8853 29.3208C16.9815 29.4101 17.0945 29.4796 17.2176 29.5253C17.3408 29.5709 17.4717 29.5919 17.603 29.587C17.7342 29.5821 17.8632 29.5513 17.9826 29.4966C18.102 29.4418 18.2094 29.364 18.2988 29.2677C18.3881 29.1714 18.4576 29.0585 18.5033 28.9353C18.5489 28.8122 18.5699 28.6813 18.565 28.55L18.498 26.754L20.146 25.802C20.6551 26.3212 21.296 26.6918 22 26.874V28.776L20.411 29.616C20.1765 29.74 20.0009 29.952 19.9228 30.2055C19.8447 30.4589 19.8705 30.733 19.9945 30.9675C20.1185 31.202 20.3305 31.3775 20.584 31.4557C20.8374 31.5338 21.1115 31.508 21.346 31.384L22 31.038V32C22 32.2652 22.1053 32.5196 22.2929 32.7071C22.4804 32.8946 22.7348 33 23 33C23.2652 33 23.5196 32.8946 23.7071 32.7071C23.8946 32.5196 24 32.2652 24 32V31.038L24.654 31.384C24.8884 31.508 25.1625 31.5338 25.416 31.4557C25.6695 31.3775 25.8815 31.202 26.0055 30.9675C26.1295 30.733 26.1553 30.4589 26.0771 30.2055C25.999 29.952 25.8234 29.74 25.589 29.616L24 28.776V26.874C24.7038 26.6921 25.3448 26.3218 25.854 25.803L27.502 26.754L27.435 28.55C27.4301 28.6813 27.451 28.8122 27.4967 28.9353C27.5424 29.0585 27.6119 29.1714 27.7012 29.2677C27.7905 29.364 27.898 29.4418 28.0174 29.4966C28.1367 29.5513 28.2657 29.5821 28.397 29.587C28.5282 29.5919 28.6592 29.5709 28.7823 29.5253C28.9055 29.4796 29.0184 29.4101 29.1147 29.3208C29.211 29.2314 29.2888 29.124 29.3436 29.0046C29.3983 28.8853 29.4291 28.7563 29.434 28.625L29.461 27.885L30.294 28.366C30.4078 28.4327 30.5336 28.4762 30.6643 28.4941C30.7949 28.512 30.9278 28.5038 31.0553 28.4701C31.1828 28.4364 31.3024 28.3778 31.4072 28.2977C31.5119 28.2176 31.5998 28.1175 31.6658 28.0033C31.7317 27.8891 31.7744 27.763 31.7914 27.6322C31.8084 27.5014 31.7994 27.3686 31.7648 27.2413C31.7302 27.114 31.6709 26.9949 31.5901 26.8906C31.5093 26.7864 31.4086 26.6992 31.294 26.634L30.462 26.154L31.088 25.76C31.3126 25.6189 31.472 25.3944 31.5311 25.1357C31.5902 24.8771 31.5441 24.6056 31.403 24.381C31.2619 24.1564 31.0373 23.997 30.7787 23.9379C30.5201 23.8788 30.2486 23.9249 30.024 24.066L28.502 25.022L26.855 24.072C27.0499 23.371 27.0499 22.63 26.855 21.929L28.502 20.978L30.024 21.934C30.2486 22.0751 30.5201 22.1212 30.7787 22.0621C31.0373 22.003 31.2619 21.8436 31.403 21.619C31.5441 21.3944 31.5902 21.1229 31.5311 20.8643C31.472 20.6056 31.3126 20.3811 31.088 20.24L30.461 19.847L31.294 19.366C31.4086 19.3008 31.5093 19.2136 31.5901 19.1094C31.6709 19.0051 31.7302 18.886 31.7648 18.7587C31.7994 18.6314 31.8084 18.4986 31.7914 18.3678C31.7744 18.237 31.7317 18.1109 31.6658 17.9967C31.5998 17.8825 31.5119 17.7824 31.4072 17.7023C31.3024 17.6222 31.1828 17.5636 31.0553 17.5299C30.9278 17.4962 30.7949 17.488 30.6643 17.5059C30.5336 17.5238 30.4078 17.5673 30.294 17.634L29.461 18.114L29.434 17.375C29.4291 17.2437 29.3983 17.1147 29.3436 16.9954C29.2888 16.876 29.211 16.7686 29.1147 16.6792C29.0184 16.5899 28.9055 16.5204 28.7823 16.4747C28.6592 16.4291 28.5282 16.4081 28.397 16.413C28.2657 16.4179 28.1367 16.4487 28.0174 16.5034C27.898 16.5582 27.7905 16.636 27.7012 16.7323C27.6119 16.8286 27.5424 16.9415 27.4967 17.0647C27.451 17.1878 27.4301 17.3187 27.435 17.45L27.502 19.246L25.854 20.197C25.3448 19.6782 24.7038 19.3079 24 19.126V17.224L25.589 16.384C25.8234 16.26 25.999 16.048 26.0771 15.7945C26.1553 15.5411 26.1295 15.267 26.0055 15.0325C25.8815 14.798 25.6695 14.6225 25.416 14.5443C25.1625 14.4662 24.8884 14.492 24.654 14.616L24 14.962V14Z" fill="white"/>
</svg>
