<svg width="45" height="45" viewBox="0 0 45 45" fill="none" xmlns="http://www.w3.org/2000/svg">
<circle cx="22.5" cy="22.5" r="22.4" fill="#333333" stroke="black" stroke-width="0.2"/>
<path d="M31.7 16.8701L23.2 13.0901C23.1374 13.0607 23.0691 13.0454 23 13.0454C22.9309 13.0454 22.8626 13.0607 22.8 13.0901L14.3 16.8701C14.2121 16.9084 14.1371 16.9712 14.0839 17.051C14.0307 17.1308 14.0016 17.2242 14 17.3201V20.0001C14 24.9201 16.94 30.8801 22.82 32.9401C22.9367 32.9797 23.0633 32.9797 23.18 32.9401C29.06 30.8801 32 24.9201 32 20.0001V17.3201C31.9984 17.2242 31.9693 17.1308 31.9161 17.051C31.8629 16.9712 31.7879 16.9084 31.7 16.8701ZM27.688 20.1801L22.408 26.9021C22.3313 26.999 22.235 27.0786 22.1254 27.1358C22.0158 27.193 21.8954 27.2265 21.772 27.2341L21.72 27.2361C21.4875 27.2357 21.2646 27.1433 21.1 26.9791L18.38 24.2591C18.216 24.0947 18.124 23.8718 18.1242 23.6395C18.1245 23.4073 18.2171 23.1846 18.3815 23.0206C18.5459 22.8566 18.7688 22.7646 19.0011 22.7648C19.2333 22.7651 19.456 22.8577 19.62 23.0221L21.642 25.0441L26.312 19.0991C26.458 18.9241 26.6664 18.8129 26.893 18.7891C27.1197 18.7653 27.3467 18.8307 27.5258 18.9715C27.705 19.1123 27.8223 19.3174 27.8527 19.5432C27.8832 19.769 27.8245 19.9979 27.689 20.1811L27.688 20.1801Z" fill="white"/>
</svg>
