<svg width="45" height="45" viewBox="0 0 45 45" fill="none" xmlns="http://www.w3.org/2000/svg">
<circle cx="22.5" cy="22.5" r="22.4" fill="#333333" stroke="black" stroke-width="0.2"/>
<path d="M15 16C14.4696 16 13.9609 16.2107 13.5858 16.5858C13.2107 16.9609 13 17.4696 13 18V28C13 28.5304 13.2107 29.0391 13.5858 29.4142C13.9609 29.7893 14.4696 30 15 30H31C31.5304 30 32.0391 29.7893 32.4142 29.4142C32.7893 29.0391 33 28.5304 33 28V18C33 17.4696 32.7893 16.9609 32.4142 16.5858C32.0391 16.2107 31.5304 16 31 16H15ZM15 18H27V28H15V18ZM30 18C30.2652 18 30.5196 18.1054 30.7071 18.2929C30.8946 18.4804 31 18.7348 31 19C31 19.2652 30.8946 19.5196 30.7071 19.7071C30.5196 19.8946 30.2652 20 30 20C29.7348 20 29.4804 19.8946 29.2929 19.7071C29.1054 19.5196 29 19.2652 29 19C29 18.7348 29.1054 18.4804 29.2929 18.2929C29.4804 18.1054 29.7348 18 30 18ZM24 20V26H26V20H24ZM30 22C30.2652 22 30.5196 22.1054 30.7071 22.2929C30.8946 22.4804 31 22.7348 31 23C31 23.2652 30.8946 23.5196 30.7071 23.7071C30.5196 23.8946 30.2652 24 30 24C29.7348 24 29.4804 23.8946 29.2929 23.7071C29.1054 23.5196 29 23.2652 29 23C29 22.7348 29.1054 22.4804 29.2929 22.2929C29.4804 22.1054 29.7348 22 30 22Z" fill="white"/>
</svg>
