<svg width="48" height="48" viewBox="0 0 48 48" fill="none" xmlns="http://www.w3.org/2000/svg">
<path d="M8.8 42C8.16667 41.8667 7.57467 41.5247 7.024 40.974C6.47333 40.4233 6.132 39.832 6 39.2L39.2 6C39.9 6.16667 40.5 6.50867 41 7.026C41.5 7.54334 41.85 8.13467 42.05 8.8L8.8 42ZM6 29.4V23.8L23.8 6H29.4L6 29.4ZM6 14V10C6 8.9 6.392 7.958 7.176 7.174C7.96 6.39 8.90133 5.99867 10 6H14L6 14ZM34 42L42 34V38C42 39.1 41.6087 40.042 40.826 40.826C40.0433 41.61 39.1013 42.0013 38 42H34ZM18.6 42L42 18.6V24.2L24.2 42H18.6Z" fill="black"/>
</svg>
