<svg width="48" height="48" viewBox="0 0 48 48" fill="none" xmlns="http://www.w3.org/2000/svg">
<path d="M35.142 36H40.8C41.1183 36 41.4235 35.8736 41.6485 35.6485C41.8736 35.4235 42 35.1183 42 34.8V22C42 19.8783 41.1571 17.8434 39.6569 16.3431C38.1566 14.8429 36.1217 14 34 14H14C11.8783 14 9.84344 14.8429 8.34315 16.3431C6.84285 17.8434 6 19.8783 6 22V34.8C6 35.1183 6.12643 35.4235 6.35147 35.6485C6.57652 35.8736 6.88174 36 7.2 36H12.858M16 14V7.2C16 6.88174 16.1264 6.57652 16.3515 6.35147C16.5765 6.12643 16.8817 6 17.2 6H30.8C31.1183 6 31.4235 6.12643 31.6485 6.35147C31.8736 6.57652 32 6.88174 32 7.2V14" stroke="black" stroke-width="3"/>
<path d="M12.1957 40.63L12.8557 36L13.8517 29.03C13.8926 28.7441 14.0353 28.4825 14.2535 28.2933C14.4717 28.1041 14.7509 28 15.0397 28H32.9597C33.2485 28 33.5277 28.1041 33.7459 28.2933C33.9641 28.4825 34.1068 28.7441 34.1477 29.03L35.1397 36L35.8017 40.63C35.8261 40.8002 35.8135 40.9737 35.765 41.1387C35.7165 41.3036 35.6331 41.4563 35.5204 41.5862C35.4077 41.7161 35.2685 41.8203 35.112 41.8917C34.9556 41.9631 34.7857 42 34.6137 42H13.3837C13.2117 42 13.0418 41.9631 12.8853 41.8917C12.7289 41.8203 12.5896 41.7161 12.477 41.5862C12.3643 41.4563 12.2809 41.3036 12.2324 41.1387C12.1838 40.9737 12.1713 40.8002 12.1957 40.63Z" stroke="black" stroke-width="3"/>
<path d="M34 20.02L34.02 19.998" stroke="black" stroke-width="3" stroke-linecap="round" stroke-linejoin="round"/>
</svg>
