<svg width="48" height="48" viewBox="0 0 48 48" fill="none" xmlns="http://www.w3.org/2000/svg">
<path d="M6.63939 1.90804C6.63939 1.90804 4.77539 1.56003 4.77539 4.27604C4.77539 6.99403 5.21939 40.296 5.21939 40.296C5.21939 40.296 5.97739 41.622 6.26139 41.558C6.54339 41.498 11.3534 40.842 11.4154 40.832L11.4494 40.828L11.4754 32.82L11.4994 25.02L20.0174 25.018L20.0094 24.408L11.5014 24.3L11.5114 21.068L21.5914 21.182L21.6154 20.538L11.5154 20.304L11.5494 8.00804C11.5494 8.00804 11.4374 6.66204 12.2574 6.66204C13.0774 6.66204 33.9694 7.41604 33.9694 7.41604C33.9694 7.41604 34.6554 7.44003 34.6774 7.93004C34.6874 8.14404 34.6834 14.73 34.6854 19.848L32.5494 20.076L32.5534 20.706L24.1234 20.582L24.1114 21.258L32.5994 21.374L32.6094 24.444L27.8294 24.478L27.8254 25.07L32.5794 25.024L32.5854 25.494H34.6914C34.6914 27.514 34.6954 28.92 34.6914 30.354C35.7754 30.67 37.4614 31.224 37.4614 31.224L34.6554 31.644C34.6554 32.09 34.6594 32.788 34.6654 33.49L32.8054 32.79L31.4974 32.956L34.6674 34.134L34.6734 34.868L38.8174 34.286L38.8034 4.76804C38.8034 4.76804 38.8234 3.67604 37.6754 3.64004C36.5254 3.60604 6.63939 1.90804 6.63939 1.90804ZM19.1594 19.232L19.1494 20.332L21.7554 20.396L21.6954 22.134L20.1154 22.094L20.1574 25.694L20.7254 25.634L20.7394 26.334L22.6774 26.394V27.526C22.6961 27.526 22.7114 27.5327 22.7234 27.546C22.7367 27.5594 22.7434 27.5747 22.7434 27.592V27.618L23.2194 27.858C23.2331 27.8631 23.2445 27.8731 23.2514 27.886C23.2573 27.8985 23.2587 27.9126 23.2554 27.926L23.2514 27.938L24.0854 28.178L24.0454 24.082L24.0774 24.046C24.1174 24.046 27.5494 24.032 27.5494 24.01L27.5534 22.116L23.9614 22.142L24.0214 19.48L19.1594 19.232ZM27.5454 24.18L24.3094 24.214L24.3494 28.034L27.5454 27.946V24.18ZM22.6774 27.592L22.3614 27.906L22.7814 28.326L23.1914 27.918L22.6774 27.658V27.592ZM27.5274 28.402C27.4694 28.402 11.7814 30.194 11.7814 30.194L18.1754 33.63L37.2874 31.212C37.2874 31.212 27.5874 28.402 27.5274 28.402ZM11.6814 30.252L11.7014 31.242L12.1354 31.468L13.3714 31.508L17.6134 33.836L17.0994 34.208L17.9234 34.784L20.5394 34.558L21.1994 34.186L33.7854 32.6L34.5054 32.724L34.4454 31.694L18.1094 33.774L11.6814 30.252ZM12.9794 32.818L11.5674 32.858L11.5474 40.862L13.2274 40.51L13.1534 38.646L19.7054 43.622C19.7054 43.622 19.6534 44.528 19.7654 45.362C19.8794 46.196 20.9914 46.102 20.9914 46.102L23.5774 45.548L23.9774 45.064L39.8914 42.014L40.3154 42.426L42.6314 41.932C42.8694 41.88 43.0534 41.532 43.1774 41.304C43.3014 41.076 43.1294 37.7 43.1674 36.638C43.1994 35.748 43.0074 35.788 42.9094 35.762L41.3954 36.03C41.3954 36.03 40.9794 36.144 40.7674 36.05C40.4194 35.898 40.4594 35.64 40.4594 35.64C40.4594 35.64 40.4794 35.196 40.3254 34.702C40.1714 34.208 39.8094 34.28 39.8094 34.28L25.6494 36.268C25.6494 36.268 24.9054 36.384 24.2594 36.548L20.6554 34.568L20.5734 34.614L20.5454 34.622L19.4934 34.714L23.5294 36.844C23.5234 36.858 23.4554 36.862 23.4534 36.876C23.2594 38.64 23.0494 38.854 22.5274 38.936L19.7574 39.326L13.5974 35.104L12.9794 32.818Z" fill="black"/>
</svg>
