<svg width="48" height="48" viewBox="0 0 48 48" fill="none" xmlns="http://www.w3.org/2000/svg">
<path d="M5.25 24.0001V46.5001H42.75V24.0001C42.7486 22.807 42.2741 21.6632 41.4305 20.8196C40.5869 19.976 39.4431 19.5014 38.25 19.5001H30.1297L31.3554 9.5379L31.3618 9.47443C31.4431 8.45817 31.3132 7.43609 30.9801 6.47253C30.647 5.50897 30.1181 4.62481 29.4265 3.87572C28.735 3.12662 27.8958 2.52882 26.9619 2.11995C26.028 1.71108 25.0195 1.5 24 1.5C22.9805 1.5 21.972 1.71108 21.0381 2.11995C20.1042 2.52882 19.265 3.12662 18.5735 3.87572C17.8819 4.62481 17.353 5.50897 17.0199 6.47253C16.6868 7.43609 16.5569 8.45817 16.6382 9.47443L16.6407 9.50612L17.8703 19.5001H9.75C8.55694 19.5014 7.41314 19.976 6.56953 20.8196C5.72591 21.6632 5.25136 22.807 5.25 24.0001ZM39.75 43.5001H8.25V30.0001H39.75V43.5001ZM21.2625 22.5001L19.6264 9.20555C19.582 8.60409 19.6621 7.99993 19.8618 7.43084C20.0614 6.86174 20.3763 6.33995 20.7868 5.89807C21.1972 5.45619 21.6944 5.10372 22.2472 4.8627C22.8001 4.62168 23.3967 4.49728 23.9998 4.49728C24.6029 4.49728 25.1995 4.62168 25.7524 4.8627C26.3052 5.10372 26.8024 5.45619 27.2129 5.89807C27.6233 6.33995 27.9382 6.86174 28.1379 7.43084C28.3375 7.99993 28.4177 8.60409 28.3733 9.20555L26.738 22.5001H38.25C38.6477 22.5005 39.0289 22.6587 39.3101 22.9399C39.5913 23.2211 39.7495 23.6024 39.75 24.0001V27.0001H8.25V24.0001C8.2505 23.6024 8.40869 23.2211 8.68989 22.9399C8.97109 22.6587 9.35233 22.5005 9.75 22.5001H21.2625Z" fill="black"/>
</svg>
