<svg width="72" height="108" viewBox="0 0 72 108" fill="none" xmlns="http://www.w3.org/2000/svg">
<g filter="url(#filter0_d_119_361)">
<path d="M4 12C4 5.37258 9.37258 0 16 0H56C62.6274 0 68 5.37258 68 12V88C68 94.6274 62.6274 100 56 100H16C9.37258 100 4 94.6274 4 88V12Z" fill="#FBB24A"/>
<path d="M30.616 60V36.6L32.668 38.724H25.288V34.8H35.296V60H30.616Z" fill="white"/>
<path d="M42.952 42.112C42.2373 42.112 41.5493 42.0213 40.888 41.84C40.2373 41.648 39.72 41.4187 39.336 41.152L40.104 39.632C40.488 39.8773 40.9467 40.08 41.48 40.24C42.0133 40.4 42.5467 40.48 43.08 40.48C43.7093 40.48 44.1627 40.3947 44.44 40.224C44.728 40.0533 44.872 39.824 44.872 39.536C44.872 39.3013 44.776 39.1253 44.584 39.008C44.392 38.88 44.1413 38.784 43.832 38.72C43.5227 38.656 43.176 38.5973 42.792 38.544C42.4187 38.4907 42.04 38.4213 41.656 38.336C41.2827 38.24 40.9413 38.1067 40.632 37.936C40.3227 37.7547 40.072 37.5147 39.88 37.216C39.688 36.9173 39.592 36.5227 39.592 36.032C39.592 35.488 39.7467 35.0187 40.056 34.624C40.3653 34.2187 40.7973 33.9093 41.352 33.696C41.9173 33.472 42.584 33.36 43.352 33.36C43.928 33.36 44.5093 33.424 45.096 33.552C45.6827 33.68 46.168 33.8613 46.552 34.096L45.784 35.616C45.3787 35.3707 44.968 35.2053 44.552 35.12C44.1467 35.024 43.7413 34.976 43.336 34.976C42.728 34.976 42.2747 35.0667 41.976 35.248C41.688 35.4293 41.544 35.6587 41.544 35.936C41.544 36.192 41.64 36.384 41.832 36.512C42.024 36.64 42.2747 36.7413 42.584 36.816C42.8933 36.8907 43.2347 36.9547 43.608 37.008C43.992 37.0507 44.3707 37.12 44.744 37.216C45.1173 37.312 45.4587 37.4453 45.768 37.616C46.088 37.776 46.344 38.0053 46.536 38.304C46.728 38.6027 46.824 38.992 46.824 39.472C46.824 40.0053 46.664 40.4693 46.344 40.864C46.0347 41.2587 45.592 41.568 45.016 41.792C44.44 42.0053 43.752 42.112 42.952 42.112ZM51.7624 42.112C50.8237 42.112 50.0984 41.872 49.5864 41.392C49.0744 40.9013 48.8184 40.1813 48.8184 39.232V31.568H50.8184V39.184C50.8184 39.5893 50.9197 39.904 51.1224 40.128C51.3357 40.352 51.629 40.464 52.0024 40.464C52.4504 40.464 52.8237 40.3467 53.1224 40.112L53.6824 41.536C53.4477 41.728 53.1597 41.872 52.8184 41.968C52.477 42.064 52.125 42.112 51.7624 42.112ZM47.4104 35.12V33.52H53.1064V35.12H47.4104Z" fill="white"/>
</g>
<defs>
<filter id="filter0_d_119_361" x="0" y="0" width="72" height="108" filterUnits="userSpaceOnUse" color-interpolation-filters="sRGB">
<feFlood flood-opacity="0" result="BackgroundImageFix"/>
<feColorMatrix in="SourceAlpha" type="matrix" values="0 0 0 0 0 0 0 0 0 0 0 0 0 0 0 0 0 0 127 0" result="hardAlpha"/>
<feOffset dy="4"/>
<feGaussianBlur stdDeviation="2"/>
<feComposite in2="hardAlpha" operator="out"/>
<feColorMatrix type="matrix" values="0 0 0 0 0 0 0 0 0 0 0 0 0 0 0 0 0 0 0.25 0"/>
<feBlend mode="normal" in2="BackgroundImageFix" result="effect1_dropShadow_119_361"/>
<feBlend mode="normal" in="SourceGraphic" in2="effect1_dropShadow_119_361" result="shape"/>
</filter>
</defs>
</svg>
