<svg width="32" height="32" viewBox="0 0 32 32" fill="none" xmlns="http://www.w3.org/2000/svg">
<circle cx="16" cy="16" r="16" fill="white"/>
<path fill-rule="evenodd" clip-rule="evenodd" d="M15.721 5.721C15.831 5.721 16.085 5.786 16.456 6.187C16.818 6.577 17.2 7.195 17.547 8.033C17.77 8.57 17.97 9.178 18.14 9.845C16.5317 9.67784 14.9103 9.67784 13.302 9.845C13.472 9.178 13.672 8.57 13.895 8.033C14.242 7.195 14.624 6.577 14.985 6.186C15.357 5.786 15.61 5.721 15.721 5.721ZM12.906 11.906C13.8391 11.7813 14.7796 11.7195 15.721 11.721C16.706 11.721 17.651 11.787 18.536 11.906C18.655 12.791 18.721 13.736 18.721 14.721C18.721 15.706 18.655 16.651 18.536 17.536C17.6029 17.6607 16.6624 17.7225 15.721 17.721C14.736 17.721 13.791 17.655 12.906 17.536C12.7813 16.6029 12.7195 15.6624 12.721 14.721C12.721 13.736 12.787 12.791 12.906 11.906ZM10.846 17.14C10.6788 15.5317 10.6788 13.9103 10.846 12.302C10.178 12.472 9.569 12.672 9.033 12.895C8.195 13.242 7.577 13.624 7.186 13.985C6.786 14.357 6.721 14.61 6.721 14.721C6.721 14.832 6.786 15.085 7.186 15.456C7.577 15.818 8.195 16.2 9.033 16.547C9.62215 16.7874 10.2287 16.9856 10.846 17.14ZM13.302 19.597C14.9103 19.7642 16.5317 19.7642 18.14 19.597C17.97 20.264 17.77 20.873 17.547 21.409C17.2 22.247 16.818 22.865 16.457 23.256C16.085 23.656 15.832 23.721 15.721 23.721C15.61 23.721 15.357 23.656 14.986 23.256C14.624 22.865 14.242 22.247 13.895 21.409C13.6546 20.8198 13.4564 20.2143 13.302 19.597ZM20.596 17.14C20.7632 15.5317 20.7632 13.9103 20.596 12.302C21.2137 12.4563 21.8195 12.6545 22.409 12.895C23.247 13.242 23.865 13.624 24.256 13.985C24.656 14.357 24.721 14.61 24.721 14.721C24.721 14.832 24.656 15.085 24.256 15.456C23.865 15.818 23.247 16.2 22.409 16.547C21.872 16.77 21.263 16.97 20.596 17.14ZM20.268 10.174C20.0681 9.17996 19.7758 8.20674 19.395 7.267C19.028 6.383 18.587 5.602 18.076 5C19.8611 5.4345 21.4924 6.35143 22.7915 7.65053C24.0906 8.94964 25.0075 10.5809 25.442 12.366C24.84 11.856 24.059 11.414 23.175 11.047C22.2353 10.6662 21.262 10.374 20.268 10.174ZM20.268 19.268C20.0681 20.262 19.7758 21.2353 19.395 22.175C19.028 23.059 18.587 23.84 18.076 24.442C19.8611 24.0075 21.4924 23.0906 22.7915 21.7915C24.0906 20.4924 25.0075 18.8611 25.442 17.076C24.84 17.586 24.059 18.028 23.175 18.395C22.324 18.748 21.343 19.045 20.268 19.268ZM13.366 24.442C12.856 23.84 12.414 23.059 12.047 22.175C11.6662 21.2353 11.374 20.262 11.174 19.268C10.18 19.0681 9.20674 18.7758 8.267 18.395C7.383 18.028 6.601 17.587 6 17.076C6.4345 18.8611 7.35143 20.4924 8.65053 21.7915C9.94964 23.0906 11.5809 24.0075 13.366 24.442ZM11.174 10.174C11.397 9.099 11.694 8.118 12.047 7.267C12.414 6.383 12.855 5.602 13.366 5C11.5809 5.4345 9.94964 6.35143 8.65053 7.65053C7.35143 8.94964 6.4345 10.5809 6 12.366C6.601 11.856 7.383 11.414 8.267 11.047C9.20674 10.6662 10.18 10.374 11.174 10.174Z" fill="black"/>
</svg>
